<svg width="138" height="201" viewBox="0 0 138 201" fill="none" xmlns="http://www.w3.org/2000/svg">
<g clip-path="url(#clip0_10_183)">
<path fill-rule="evenodd" clip-rule="evenodd" d="M62.3584 164.604C77.2803 164.352 83.9107 168.338 95.539 170.241C108.906 172.427 129.956 172.073 134.484 176.403C139.583 181.279 132.497 187.657 118.745 192.43C105.094 197.169 102 200.538 64.9531 200.538C48.252 200.754 39.5083 201.076 28 198.395C17.7521 196.007 5.15507 189.853 2.32336 185.946C-0.952673 181.426 1.41043 175.922 13.5056 171.622C25.6318 167.311 45.0635 164.895 62.3584 164.604Z" fill="#4A3620"/>
<path fill-rule="evenodd" clip-rule="evenodd" d="M115.775 172.426C113.738 172.346 111.245 173.189 110.001 171.826C108.756 170.462 110.057 168.583 110.826 167.005C111.42 165.784 112.332 164.741 113.739 164.154C115.231 163.531 116.91 163.326 118.487 163.806C120.384 164.383 122.246 165.329 122.879 166.935C123.594 168.749 123.494 171.004 121.83 172.289C120.274 173.492 117.898 172.509 115.775 172.426Z" fill="#C4C4C4" stroke="#939393" stroke-width="2"/>
<path fill-rule="evenodd" clip-rule="evenodd" d="M86.0651 162.609C84.8855 158.348 86.9551 153.638 90.2846 150.729C93.3814 148.023 97.8533 147.86 101.854 148.814C105.237 149.62 107.268 152.512 109.375 155.28C111.877 158.567 115.834 161.772 114.753 165.759C113.642 169.854 108.881 171.751 104.705 172.497C101.299 173.105 98.4583 170.836 95.4022 169.215C91.8588 167.335 87.1353 166.475 86.0651 162.609Z" fill="#C4C4C4" stroke="#939393" stroke-width="2"/>
<path fill-rule="evenodd" clip-rule="evenodd" d="M31.7101 172.064C26.6731 172.181 20.6426 174.445 17.3781 171.554C14.1109 168.661 17.0513 164.234 18.7229 160.562C20.015 157.724 22.1159 155.239 25.5025 153.71C29.0953 152.087 33.2088 151.38 37.1681 152.232C41.9327 153.257 46.663 155.117 48.4553 158.648C50.4788 162.634 50.5535 167.732 46.6316 170.874C42.9649 173.812 36.9613 171.942 31.7101 172.064Z" fill="#C4C4C4" stroke="#939393" stroke-width="2"/>
<path fill-rule="evenodd" clip-rule="evenodd" d="M21.4855 180.448C19.308 180.502 16.6974 181.389 15.291 180.274C13.8835 179.159 15.1619 177.44 15.8906 176.015C16.4538 174.914 17.3661 173.948 18.8326 173.35C20.3883 172.715 22.1677 172.435 23.8778 172.758C25.9357 173.147 27.9774 173.86 28.7463 175.224C29.6143 176.765 29.6382 178.739 27.9376 179.962C26.3477 181.106 23.7556 180.392 21.4855 180.448Z" fill="#C4C4C4" stroke="#939393" stroke-width="2"/>
<path d="M39.4321 169.666C39.4321 154.924 51.3827 142.974 66.1244 142.974H70.7398C85.4816 142.974 97.4321 154.924 97.4321 169.666C97.4321 175.911 92.3695 180.974 86.1244 180.974H50.7398C44.4948 180.974 39.4321 175.911 39.4321 169.666Z" fill="#C1A284" stroke="#9D7B59" stroke-width="2"/>
<path fill-rule="evenodd" clip-rule="evenodd" d="M64.0985 164.406C73.3149 164.568 77.5236 168.735 84.7637 170.957C93.0863 173.512 106.088 173.741 109.006 178.193C112.293 183.207 114.915 192.977 106.547 197.367C98.2403 201.724 89.5957 201.412 66.6966 200.387C56.3795 200.141 41.7773 202.93 34.5898 199.932C28.1894 197.263 29.4392 188.056 27.5808 184.073C25.4308 179.465 26.7392 174.03 34.0964 170.068C41.4724 166.096 53.4164 164.219 64.0985 164.406Z" fill="#4A3620"/>
<path fill-rule="evenodd" clip-rule="evenodd" d="M108.014 182.09C104.615 181.969 100.463 183.031 98.3741 181.265C96.284 179.497 98.4371 177.088 99.7058 175.062C100.687 173.496 102.199 172.161 104.54 171.418C107.025 170.629 109.825 170.381 112.46 171.013C115.632 171.774 118.748 173.009 119.82 175.085C121.029 177.428 120.882 180.33 118.117 181.971C115.532 183.505 111.558 182.217 108.014 182.09Z" fill="#C4C4C4" stroke="#939393" stroke-width="2"/>
<path fill-rule="evenodd" clip-rule="evenodd" d="M93.3027 159.233C97.7417 158.62 102.732 158.015 105.896 160.866C109.037 163.696 108.581 168.301 107.866 172.356C107.219 176.034 105.703 179.747 102.227 181.696C98.8882 183.569 94.9573 182.459 91.1939 181.704C86.6659 180.796 81.0932 180.85 79.0319 177.044C76.8386 172.995 78.7413 167.918 81.7162 164.205C84.3848 160.874 88.8936 159.842 93.3027 159.233Z" fill="#C4C4C4" stroke="#939393" stroke-width="2"/>
<path fill-rule="evenodd" clip-rule="evenodd" d="M84.9591 165.913C87.9827 166.936 90.3685 169.053 91.8084 171.847C93.5923 175.308 95.8447 179.579 93.6081 182.695C91.3989 185.773 86.6004 184.435 82.7127 184.52C79.3551 184.594 75.8743 185.189 73.2069 183.141C70.1037 180.759 67.4813 177.087 68.1584 173.346C68.8109 169.742 72.8026 168.078 76.2062 166.572C78.9925 165.339 82.0265 164.922 84.9591 165.913Z" fill="#C4C4C4" stroke="#939393" stroke-width="2"/>
<path fill-rule="evenodd" clip-rule="evenodd" d="M62.6096 155.021C67.7939 156.14 72.1282 159.199 75.0259 163.561C78.6158 168.965 83.13 175.622 80.015 181.222C76.9383 186.754 68.7637 185.451 62.358 186.335C56.8258 187.099 51.1871 188.753 46.4007 185.864C40.832 182.503 35.818 176.909 36.2411 170.571C36.6487 164.464 42.9326 160.938 48.2746 157.788C52.6476 155.209 57.5814 153.936 62.6096 155.021Z" fill="#C4C4C4" stroke="#939393" stroke-width="2"/>
<path fill-rule="evenodd" clip-rule="evenodd" d="M51.1076 170.514C53.1608 174.619 53.7917 179.958 50.9177 183.651C48.2655 187.059 43.1507 186.134 38.8215 186.302C35.5478 186.429 32.3721 186.294 29.7078 184.474C26.5133 182.291 23.2873 179.49 23.2155 175.638C23.1383 171.503 25.8402 167.735 29.3516 165.382C32.7703 163.092 36.9902 162.811 40.9633 163.748C45.1632 164.739 49.2095 166.719 51.1076 170.514Z" fill="#C4C4C4" stroke="#939393" stroke-width="2"/>
</g>
<defs>
<clipPath id="clip0_10_183">
<rect width="137.294" height="200" fill="white" transform="translate(0 0.394928)"/>
</clipPath>
</defs>
</svg>
