<svg width="204" height="2889" viewBox="0 0 204 2889" fill="none" xmlns="http://www.w3.org/2000/svg">
<rect width="204" height="2889" fill="url(#paint0_linear_665_726)"/>
<path d="M202.5 1444.5C202.5 1500.83 157.728 1546.5 102.5 1546.5C47.2715 1546.5 2.5 1500.83 2.5 1444.5C2.5 1388.17 47.2715 1342.5 102.5 1342.5C157.728 1342.5 202.5 1388.17 202.5 1444.5Z" fill="white"/>
<path d="M202.5 1444.5C202.5 1500.83 157.728 1546.5 102.5 1546.5C47.2715 1546.5 2.5 1500.83 2.5 1444.5C2.5 1388.17 47.2715 1342.5 102.5 1342.5C157.728 1342.5 202.5 1388.17 202.5 1444.5Z" fill="white"/>
<path d="M202.5 1444.5C202.5 1500.83 157.728 1546.5 102.5 1546.5C47.2715 1546.5 2.5 1500.83 2.5 1444.5C2.5 1388.17 47.2715 1342.5 102.5 1342.5C157.728 1342.5 202.5 1388.17 202.5 1444.5Z" stroke="black" stroke-width="5"/>
<mask id="path-4-inside-1_665_726" fill="white">
<path d="M202.5 1444.5C202.5 1431.11 199.913 1417.84 194.888 1405.47C189.862 1393.09 182.497 1381.85 173.211 1372.38C163.925 1362.9 152.901 1355.39 140.768 1350.26C128.636 1345.14 115.632 1342.5 102.5 1342.5C89.3678 1342.5 76.3642 1345.14 64.2317 1350.26C52.0991 1355.39 41.0752 1362.9 31.7893 1372.38C22.5035 1381.85 15.1375 1393.09 10.112 1405.47C5.08657 1417.84 2.5 1431.11 2.5 1444.5L102.5 1444.5H202.5Z"/>
</mask>
<path d="M202.5 1444.5C202.5 1431.11 199.913 1417.84 194.888 1405.47C189.862 1393.09 182.497 1381.85 173.211 1372.38C163.925 1362.9 152.901 1355.39 140.768 1350.26C128.636 1345.14 115.632 1342.5 102.5 1342.5C89.3678 1342.5 76.3642 1345.14 64.2317 1350.26C52.0991 1355.39 41.0752 1362.9 31.7893 1372.38C22.5035 1381.85 15.1375 1393.09 10.112 1405.47C5.08657 1417.84 2.5 1431.11 2.5 1444.5L102.5 1444.5H202.5Z" fill="#C5312A" stroke="black" stroke-width="4" mask="url(#path-4-inside-1_665_726)"/>
<path d="M2.77339 1440.5H96.5V1447.5H2.77338C2.77338 1447.5 2.5 1445.91 2.5 1444C2.5 1442.63 2.77339 1440.5 2.77339 1440.5Z" fill="black"/>
<path d="M201.925 1447.5H106.5V1440.5H201.926C201.926 1440.5 202.5 1442.09 202.5 1444C202.5 1445.91 201.925 1447.5 201.925 1447.5Z" fill="black"/>
<circle cx="102.5" cy="1444.5" r="17.5" fill="#F7F7F7" stroke="black" stroke-width="5"/>
<circle cx="102.5" cy="1444.5" r="9.5" fill="#F7F7F7" stroke="#B8B5B5"/>
<defs>
<linearGradient id="paint0_linear_665_726" x1="0" y1="1445" x2="204" y2="1445" gradientUnits="userSpaceOnUse">
<stop stop-color="#333333"/>
<stop offset="0.3" stop-color="#656565"/>
<stop offset="1" stop-color="#CCCCCC"/>
</linearGradient>
</defs>
</svg>
