<svg width="2500" height="3000" viewBox="0 0 2500 3000" fill="none" xmlns="http://www.w3.org/2000/svg">
<rect x="157.661" y="111.137" width="2198.4" height="2185.68" fill="#614632"/>
<rect x="156.738" y="904.846" width="2198.4" height="2095.16" fill="#664E38"/>
<rect x="156.738" y="1529.46" width="2198.4" height="146.661" fill="#72573E"/>
<path d="M457.722 1641.32C422.82 1632.07 339.595 1622.65 285.92 1658.98C285.92 1658.98 187.099 1699.62 189.344 1745.6C191.498 1789.69 236.311 1809.29 285.92 1825.49C331.707 1840.45 335.418 1829.14 383.512 1820.45C425.222 1812.91 464.857 1801.22 507.535 1800.26C553.153 1799.24 576.977 1816.82 621.392 1825.49C693.262 1839.52 796.082 1885.41 810.477 1825.49C818.367 1792.65 797.774 1771.99 772.863 1745.6C741.099 1711.95 710.22 1695.37 659.006 1690.09C612.283 1685.28 576.663 1693.46 547.182 1690.09C517.701 1686.73 457.722 1641.32 457.722 1641.32Z" fill="#523A29"/>
<path d="M1740.49 1900.11C1705.54 1890.8 1543.81 1905.87 1490.05 1942.41C1490.05 1942.41 1390.11 1994.27 1392.36 2040.53C1394.51 2084.87 1397.61 2129.97 1447.29 2146.27C1493.15 2161.32 1568.13 2162.63 1616.29 2153.89C1658.06 2146.31 1735.42 2138.78 1778.16 2137.81C1823.84 2136.78 1911.84 2137.56 1956.32 2146.27C2028.29 2160.38 2067.12 2114.34 2081.54 2054.07C2089.44 2021.03 2193.02 1968.96 2168.07 1942.41C2136.26 1908.56 2156.24 1905.42 2104.95 1900.11C2058.16 1895.27 1968.53 1903.49 1939.01 1900.11C1909.49 1896.72 1740.49 1900.11 1740.49 1900.11Z" fill="#523A29"/>
<path d="M156.738 970.827C1327.18 907.555 795.902 1232.44 2355.14 970.827V1529.46H156.738V970.827Z" fill="#413426"/>
<path d="M428.98 919.998C396.962 916.967 1276.63 907.116 1452.7 905.178C1470.12 904.987 1485.73 918.366 1483.11 935.596V935.596C1457.3 1105.06 817.692 935.596 545.875 935.596C274.058 935.596 464.551 923.365 428.98 919.998Z" fill="#523A29"/>
<path d="M627.874 914.828C627.874 809.286 645.539 704.777 679.859 607.268C714.179 509.76 764.483 421.162 827.899 346.532C891.315 271.902 966.601 212.703 1049.46 172.313C1132.31 131.924 1221.12 111.136 1310.8 111.136C1400.49 111.136 1489.29 131.924 1572.15 172.314C1655.01 212.703 1730.29 271.902 1793.71 346.532C1857.12 421.162 1907.43 509.76 1941.75 607.268C1976.07 704.777 1993.73 809.286 1993.73 914.828L1310.8 914.828L627.874 914.828Z" fill="#14110E"/>
<path d="M929.919 275.159C1044.93 223.18 1504.96 36.0991 1462.22 231.901C1419.47 427.703 1419 601.394 1318.95 792.643C1218.89 983.893 1086.26 861.068 834.248 900.507C422.049 965.015 814.911 327.137 929.919 275.159Z" fill="#1C1611"/>
<path d="M2355.04 627.897L2355.04 919.795L1991.36 919.794C1990.99 918.823 1990.53 917.61 1989.97 916.165C1988.36 911.938 1985.98 905.73 1982.9 897.799C1976.75 881.936 1967.83 859.18 1956.73 831.594C1934.54 776.426 1903.66 701.928 1868.89 624.625C1834.13 547.338 1795.45 467.174 1757.67 400.707C1738.78 367.474 1720.08 337.602 1702.17 313.199C1684.31 288.858 1667.05 269.701 1650.98 258.135C1643.29 252.593 1637.37 247.997 1633.02 244.246C1629.95 241.595 1627.76 239.455 1626.29 237.775C1631.96 238.387 1641.05 240.683 1652.69 244.36C1665.18 248.3 1680.14 253.672 1696.14 259.763C1728.11 271.941 1763.99 286.916 1791.89 298.858C1805.84 304.826 1817.78 310.032 1826.24 313.746C1830.47 315.603 1833.82 317.086 1836.12 318.105C1837.27 318.614 1838.16 319.008 1838.75 319.273C1839.04 319.401 1839.26 319.499 1839.41 319.566L2355.04 627.897ZM1622.07 237.753C1622.07 237.753 1622.09 237.746 1622.12 237.737C1622.09 237.749 1622.07 237.754 1622.07 237.753Z" fill="#614632" stroke="black" stroke-width="10"/>
<path d="M1091.98 231.122C1224.99 165.109 1580.58 152.243 1430.9 193.935C1253.81 243.262 1093.31 428.814 970.159 535.82C847.008 642.826 627.322 1152.82 718.768 755.905C810.214 358.992 892.129 330.305 1091.98 231.122Z" fill="#211A14"/>
<path d="M1067.94 587.555C1123.69 272.195 1140.92 641.926 1191.59 587.555C1242.27 533.184 1191.59 886.606 1191.59 886.606C1191.59 886.606 1110.51 886.606 1067.94 886.606C1025.38 886.606 1012.2 902.915 1067.94 587.555Z" fill="#211A14"/>
<path d="M1337 150.708C1307.96 198.817 755.096 372.202 683.852 413.943C612.607 455.684 600.394 400.283 654.336 321.356C708.278 242.429 814.487 204.905 897.585 166.537C980.682 128.169 1205.17 110.213 1270.52 106.846C1335.87 103.478 1366.04 102.6 1337 150.708Z" fill="#7D6246"/>
<path d="M1068.57 142.252C1068.57 142.252 891.479 187.787 840.59 214.349C789.701 240.911 656.372 330.465 656.372 330.465C656.372 330.465 732.705 240.154 913.87 168.999C1095.03 97.8445 1247.79 116.826 1254.83 117.204C1261.86 117.582 1068.57 142.252 1068.57 142.252Z" fill="#E4CAA7"/>
<path d="M660.96 280.487C693.068 327.498 528.054 757.467 527.069 825.024C526.084 892.581 460.515 864.98 411.786 784.19C363.058 703.4 390.351 618.16 402.286 545.825C414.221 473.491 536.055 331.753 573.465 291.658C610.875 251.562 628.853 233.476 660.96 280.487Z" fill="#7D6246"/>
<path d="M551.64 536.131C574.949 562.693 585.127 616.576 551.64 688.675C518.154 760.774 521.007 832.867 483.349 801.751C445.691 770.636 495.113 554.378 516.936 402.566C538.759 250.755 706.243 253.055 637.034 311.494C567.825 369.933 528.332 509.569 551.64 536.131Z" fill="#3E2B1E"/>
<path d="M271.022 641.412C318.014 658.611 361.658 767.444 416.893 834.044C472.129 900.644 379.232 918.897 291.346 894.854C291.346 894.854 126.11 877.645 142.394 768.361C158.678 659.077 145.789 450.212 167.838 420.019C189.887 389.826 224.03 624.213 271.022 641.412Z" fill="#3E2B1E"/>
<path d="M2348.01 283.486V621.633L1976.44 490.077C1976.24 489.942 1976 489.772 1975.72 489.569C1975.38 489.331 1974.98 489.047 1974.51 488.719C1973.8 488.221 1972.95 487.62 1971.95 486.92C1968.65 484.597 1963.79 481.185 1957.56 476.826C1945.09 468.107 1927.11 455.598 1905.1 440.434C1861.07 410.107 1800.87 369.154 1736.17 326.655C1671.48 284.161 1602.26 240.096 1540.21 203.557C1478.28 167.088 1423.14 137.896 1386.73 125.378C1377.87 122.333 1371.48 119.652 1367.19 117.331C1365.04 116.171 1363.55 115.168 1362.57 114.341C1362.4 114.203 1362.26 114.076 1362.14 113.96C1363.92 112.927 1367.22 111.797 1372.32 110.752C1393.03 106.5 1434.38 105.266 1480.86 105.598C1527.14 105.929 1577.93 107.799 1617.16 109.588C1636.78 110.483 1653.5 111.356 1665.31 112.006C1671.22 112.331 1675.9 112.6 1679.1 112.788C1680.7 112.882 1681.93 112.956 1682.76 113.006C1683.08 113.025 1683.35 113.041 1683.55 113.053L2348.01 283.486Z" fill="#614632" stroke="black" stroke-width="10"/>
<path d="M1677.5 192.157C1677.5 192.157 2300.34 545.699 2284.82 555.862C2269.29 566.025 2229.86 566.486 2229.86 566.486C2229.86 566.486 2068.47 514.878 1906.65 414.091C1744.84 313.304 1614.27 220.287 1572.93 178.847C1531.58 137.407 1677.5 192.157 1677.5 192.157Z" fill="#7D6246"/>
<path d="M1683.31 246.223C1683.31 246.223 1854.3 359.305 1883.81 378.277C1913.33 397.25 2174.69 537.493 2174.69 537.493C2174.69 537.493 2146.86 536.362 1977.68 442.141C1808.5 347.921 1628.35 215.286 1625.3 210.547C1622.24 205.808 1683.31 246.223 1683.31 246.223Z" fill="#E4CAA7"/>
<path d="M600.09 358.828C600.105 358.788 600.12 358.751 600.134 358.715L757.815 112.82C759.189 112.723 761.065 112.59 763.413 112.425C768.86 112.043 776.847 111.489 787.002 110.804C807.311 109.433 836.29 107.534 870.962 105.425C940.31 101.206 1032.42 96.1441 1123.48 92.7699C1214.57 89.3945 1304.5 87.7131 1369.54 90.2374C1402.12 91.5019 1428.16 93.8134 1444.94 97.4108C1453.45 99.2347 1458.96 101.27 1461.8 103.273C1463.19 104.252 1463.48 104.909 1463.53 105.069C1463.55 105.121 1463.54 105.14 1463.54 105.183C1463.53 105.244 1463.48 105.452 1463.25 105.831C1431.32 158.069 1345.26 227.243 1171.52 263.677C1083.74 282.087 960.301 325.128 848.39 371.708C792.397 395.013 739.195 419.244 694.679 441.783C650.257 464.275 614.182 485.232 592.651 502.015C582.273 510.104 575.499 513.02 571.442 513.315C569.619 513.447 568.442 513.046 567.56 512.397C566.599 511.691 565.627 510.418 564.837 508.242C563.212 503.768 562.803 496.724 563.61 487.536C564.405 478.482 566.327 467.88 568.934 456.638C574.144 434.162 581.981 409.574 588.543 390.543C591.82 381.041 594.768 372.953 596.897 367.244C597.961 364.389 598.819 362.131 599.411 360.588C599.707 359.817 599.936 359.225 600.09 358.828Z" fill="#614632" stroke="black" stroke-width="10"/>
<path d="M157.553 473.224C157.541 473.112 157.528 472.983 157.513 472.837C157.449 472.224 157.355 471.311 157.235 470.118C156.993 467.731 156.643 464.225 156.209 459.747C155.342 450.792 154.14 437.956 152.805 422.44C150.135 391.402 146.931 349.662 144.797 306.818C142.66 263.949 141.6 220.088 143.194 184.772C143.991 167.1 145.448 151.713 147.723 139.723C148.862 133.727 150.182 128.701 151.673 124.722C153.19 120.671 154.746 118.08 156.142 116.62C156.487 116.259 157.447 115.531 159.498 114.593C161.468 113.693 164.093 112.757 167.407 111.809C174.03 109.914 182.942 108.101 193.888 106.4C215.753 103.002 245.202 100.133 279.556 97.8684C348.235 93.341 436.114 91.2543 521.273 92.1059C606.462 92.9578 688.741 96.7486 746.275 103.939C775.14 107.546 797.356 111.962 810.585 117.12C817.361 119.762 820.883 122.271 822.186 124.221C822.733 125.04 822.743 125.538 822.693 125.852C822.63 126.242 822.347 127.067 821.145 128.367C767.692 186.16 697.58 241.371 584.053 309.119C568.621 318.329 555.929 333.836 545.255 353.366C534.558 372.94 525.655 396.981 518.007 423.825C502.715 477.502 492.216 543.21 482.684 608.505C481.113 619.267 479.568 630.016 478.033 640.701C470.229 695.008 462.664 747.651 453.095 791.782C447.371 818.177 440.974 841.311 433.469 859.795C425.908 878.416 417.49 891.633 408.127 898.931C403.807 902.298 399.379 903.779 394.709 903.773C389.915 903.768 384.533 902.189 378.565 898.835C366.55 892.082 353.273 878.773 339.283 860.386C311.391 823.727 281.872 768.523 254.852 710.966C227.864 653.479 203.492 593.916 185.862 548.705C177.049 526.104 169.924 507.1 165.004 493.75C162.544 487.075 160.635 481.814 159.342 478.223C158.695 476.428 158.203 475.05 157.872 474.123C157.739 473.75 157.633 473.45 157.553 473.224Z" fill="#614632" stroke="black" stroke-width="10"/>
<path d="M359.181 177.922L159.696 297.072L157.661 245.465L359.181 177.922Z" fill="#3F2A1D"/>
<path d="M736.776 317.563C776.47 301.625 1175.44 161.224 1356.6 161.227C1455.4 161.228 1084.86 264.439 955.598 305.39C826.341 346.341 693.011 402.525 622.785 450.335C552.558 498.146 697.083 333.501 736.776 317.563Z" fill="#3E2B1E"/>
<path d="M2053.65 895.158C2004.66 895.158 1863.46 533.848 1796.97 403C1761.97 334.113 1915.24 567.706 1990.68 656.038C2066.11 744.369 2128.6 815.641 2203.39 859.427C2278.19 903.213 2102.63 895.159 2053.65 895.158Z" fill="#3E2B1E"/>
<path d="M1961.69 668.927C1961.69 668.927 2113.84 886.187 2103.8 887.154C2093.76 888.121 2047.67 876.125 2047.67 876.125C2047.67 876.125 2024.01 839.208 1987.42 779.759C1950.84 720.309 1925.17 668.405 1920.99 647.938C1916.81 627.472 1961.69 668.927 1961.69 668.927Z" fill="#7D6246"/>
<path d="M1946.4 688.027C1946.4 688.027 1982.89 753.061 1989.37 764.103C1995.85 775.145 2062.36 863.585 2062.36 863.585C2062.36 863.585 2050.73 858.81 2008.81 800.405C1966.89 742 1932.89 668.943 1933.13 666.867C1933.38 664.791 1946.4 688.027 1946.4 688.027Z" fill="#E4CAA7"/>
</svg>
